<?xml version="1.0" encoding="UTF-8"?>
<svg version="1.1" xmlns="http://www.w3.org/2000/svg" width="1086" height="1086">
<path d="M0 0 C358.38 0 716.76 0 1086 0 C1086 358.38 1086 716.76 1086 1086 C727.62 1086 369.24 1086 0 1086 C0 727.62 0 369.24 0 0 Z " fill="#FDFDFD" transform="translate(0,0)"/>
<path d="M0 0 C2.03124173 -0.00435207 4.06248181 -0.00953687 6.09371948 -0.01548767 C11.58964415 -0.02883547 17.08549988 -0.02946105 22.58143759 -0.02692437 C27.1786711 -0.02585182 31.77589083 -0.03074529 36.37312138 -0.03552979 C47.22336753 -0.04661034 58.07357906 -0.04707052 68.92382812 -0.04101562 C80.0971395 -0.03497609 91.27032494 -0.04728973 102.44361484 -0.06858569 C112.0558222 -0.08622899 121.66798957 -0.09219876 131.28021252 -0.08894795 C137.01269847 -0.08713934 142.74509456 -0.08972909 148.47756577 -0.10366249 C153.87029907 -0.11628066 159.26283671 -0.11425903 164.65556717 -0.1012516 C166.6275311 -0.09889497 168.59950898 -0.10158751 170.57145691 -0.10987473 C193.22345248 -0.19816051 211.60956227 5.12215719 228.53955078 20.7902832 C245.04199981 37.71860189 247.41620516 55.50595576 247.34960938 78.04467773 C247.35367865 80.3567937 247.35902252 82.66890771 247.36553955 84.98101807 C247.37917498 91.23701863 247.37393043 97.49287018 247.36440229 103.74887323 C247.35678799 110.30563911 247.36385606 116.86239254 247.36856079 123.41915894 C247.37495973 135.13043849 247.36506132 146.84165554 247.34978278 158.55292426 C247.33637478 169.15860728 247.3387149 179.76419179 247.35253906 190.36987305 C247.36861373 202.7077526 247.37455942 215.04556942 247.36570227 227.38345802 C247.3610308 233.90668532 247.36038669 240.42984486 247.37031174 246.95306778 C247.37898984 253.08450564 247.37294382 259.21575776 247.35562897 265.3471756 C247.35166902 267.59453142 247.35278971 269.84190293 247.35941696 272.08925247 C247.3676416 275.16201637 247.35729947 278.23418883 247.34237671 281.30691528 C247.34906887 282.19146019 247.35576104 283.0760051 247.362656 283.9873544 C247.30694582 289.92078658 246.10287569 294.75983388 243.96142578 300.2746582 C243.44902344 301.78286133 243.44902344 301.78286133 242.92626953 303.3215332 C235.98351878 321.58915114 221.22223095 332.48788352 206.28930664 344.0559082 C201.15734801 348.05435344 196.25448201 352.29029285 191.3605957 356.57470703 C186.88362882 360.49110417 182.32590685 364.28800143 177.70361328 368.0324707 C174.59142143 370.57719737 171.52425094 373.17094328 168.46142578 375.7746582 C163.69241849 379.82490499 158.8822983 383.81818191 154.03173828 387.77075195 C150.20923269 390.88808794 146.39604091 394.01658761 142.58642578 397.1496582 C141.85415771 397.75181152 141.12188965 398.35396484 140.36743164 398.97436523 C135.43947933 403.03512487 130.56368472 407.15211302 125.70849609 411.29931641 C121.26247978 415.07259852 116.67373224 418.64573948 112.05932617 422.2097168 C108.26053478 425.17206244 104.72018956 428.2859551 101.21142578 431.5871582 C91.49186574 440.57882168 81.40021494 445.87168059 68.08642578 445.7121582 C66.76143066 445.70079834 66.76143066 445.70079834 65.40966797 445.68920898 C52.24874502 445.35617492 43.61002527 439.33660868 34.65283203 430.09887695 C32.41371511 427.68394022 30.25933542 425.20300129 28.10986328 422.70825195 C25.28522555 419.50870776 22.37394842 416.39410159 19.46142578 413.2746582 C15.48401442 409.01146827 11.5591014 404.72184547 7.74658203 400.30981445 C2.58407786 394.42433377 -2.78217029 388.71369787 -8.09716797 382.96606445 C-14.12692619 376.44533355 -20.11198795 369.88963199 -26.03857422 363.2746582 C-27.58010063 361.56619831 -29.12176775 359.85786537 -30.66357422 358.1496582 C-33.25247675 355.27557535 -35.81912967 352.38646219 -38.35107422 349.4621582 C-41.50933771 345.83273185 -44.7679792 342.30244023 -48.03857422 338.7746582 C-51.92964605 334.57647541 -55.79290379 330.36435991 -59.52685547 326.0246582 C-60.52891188 324.86465492 -61.54716122 323.71843141 -62.58154297 322.5871582 C-70.78167749 313.48058207 -78.16145514 300.81705631 -78.16441536 288.22399139 C-78.16832698 287.02137421 -78.16832698 287.02137421 -78.17231762 285.79446173 C-78.1700869 284.91938042 -78.16785618 284.04429912 -78.16555786 283.1427002 C-78.16789785 281.74144827 -78.16789785 281.74144827 -78.17028511 280.31188822 C-78.17428155 277.17381124 -78.17111059 274.03578244 -78.16796875 270.89770508 C-78.16932346 268.65060396 -78.17110379 266.40350306 -78.17327881 264.15640259 C-78.17784688 258.04445288 -78.17606558 251.93252001 -78.17289972 245.82056999 C-78.17037042 239.42265655 -78.17271549 233.02474456 -78.17428589 226.62683105 C-78.17622369 215.18371833 -78.1731105 203.74061492 -78.16802655 192.29750377 C-78.16356731 181.94060092 -78.16432753 171.58370929 -78.16894531 161.22680664 C-78.17430929 149.19074164 -78.17628157 137.15468512 -78.17333305 125.11861849 C-78.17177709 118.75114962 -78.1715576 112.38368846 -78.17486954 106.01622009 C-78.1777696 100.02117524 -78.17573342 94.02615145 -78.16997528 88.03110886 C-78.16865863 85.83661814 -78.16902309 83.64212564 -78.17123795 81.44763565 C-78.19379262 56.81898278 -76.66491531 38.21989076 -58.72607422 19.4621582 C-41.45052106 2.9242664 -22.82928896 -0.03233703 0 0 Z " fill="#141414" transform="translate(660.03857421875,170.725341796875)"/>
<path d="M0 0 C1.26482458 -0.00551503 1.26482458 -0.00551503 2.55520117 -0.01114148 C5.37369058 -0.02213235 8.19214305 -0.02601438 11.01065063 -0.02983093 C13.03481156 -0.03609924 15.05897135 -0.04274636 17.08312988 -0.04974365 C23.72644251 -0.07074926 30.36975526 -0.08114531 37.01309204 -0.09111023 C39.3053145 -0.09515961 41.59753684 -0.09927658 43.88975906 -0.10346031 C54.66459728 -0.1225072 65.43942868 -0.13673722 76.21428049 -0.14507228 C88.62395219 -0.15483199 101.03344492 -0.18112063 113.4430536 -0.22157317 C123.0518392 -0.25181298 132.66057373 -0.26654875 142.26940596 -0.26985329 C147.99988927 -0.27219549 153.73018128 -0.28104708 159.46061325 -0.30631447 C164.85989857 -0.32973696 170.25886857 -0.33377179 175.65819168 -0.32355309 C177.6284821 -0.32306099 179.59878879 -0.32928393 181.56903076 -0.34310913 C205.01518456 -0.49828424 224.530613 4.77189696 241.89199829 21.45576477 C250.93437612 30.85923589 255.12244238 41.71438767 258.48965454 54.14717102 C258.66759668 54.78186428 258.84553882 55.41655754 259.02887315 56.07048392 C259.49671237 58.17897981 259.61827251 60.02980095 259.62387562 62.18666458 C259.62833346 62.98594258 259.63279131 63.78522057 259.63738424 64.60871911 C259.63710769 65.91724835 259.63710769 65.91724835 259.63682556 67.25221252 C259.64050225 68.18355821 259.64417894 69.1149039 259.64796704 70.07447219 C259.65900203 73.20320288 259.66284751 76.33190035 259.66665649 79.46064758 C259.67292156 81.70125941 259.6795684 83.94187021 259.68656921 86.18247986 C259.70761662 93.55091121 259.71797604 100.91934278 259.72793579 108.28779602 C259.73198387 110.82703919 259.73610081 113.36628226 259.74028587 115.90552521 C259.75715928 126.47419062 259.77179101 137.04285389 259.77903461 147.6115303 C259.78094431 150.35322826 259.78286467 153.09492622 259.78482056 155.83662415 C259.7853043 156.51800657 259.78578804 157.19938899 259.78628644 157.90141937 C259.79456973 168.9158359 259.8198763 179.93014322 259.85240123 190.94451216 C259.8855756 202.27196667 259.90316097 213.59934643 259.90667886 224.92685676 C259.90902317 231.27887367 259.91790228 237.63071819 259.94314003 243.9826889 C259.9665352 249.96797264 259.97060805 255.95297191 259.96037865 261.93828964 C259.95988586 264.12465998 259.96612953 266.31104486 259.97993469 268.49737167 C260.10748601 289.91161399 257.40232415 308.36279845 241.99746704 324.49873352 C239.10172763 327.55685084 236.39376967 330.74318116 233.67715454 333.95967102 C229.12358755 339.31547753 224.43566493 344.52267421 219.64541626 349.66719055 C216.42966861 353.12122053 213.28432423 356.62170119 210.19668579 360.19013977 C208.15332024 362.53276252 206.07284595 364.83990524 203.98965454 367.14717102 C201.29982023 370.12779823 198.6265509 373.11962335 195.98965454 376.14717102 C192.59712361 380.04229913 189.13771254 383.87499865 185.67715454 387.70967102 C183.76411305 389.84134583 181.87077842 391.98736212 179.98965454 394.14717102 C176.59712361 398.04229913 173.13771254 401.87499865 169.67715454 405.70967102 C167.76411305 407.84134583 165.87077842 409.98736212 163.98965454 412.14717102 C160.60078634 416.03809377 157.14700583 419.86819977 153.68496704 423.69404602 C151.70981353 425.90115706 149.78423982 428.14187352 147.86465454 430.39717102 C140.16750023 439.1736964 132.18366725 444.65583706 120.33731079 445.49092102 C103.96645233 446.20918172 93.86665849 440.84975169 81.79043579 430.05342102 C78.37608809 427.0038321 74.79794852 424.19593645 71.17715454 421.39717102 C66.87638693 418.05548387 62.71183792 414.63767996 58.65371704 411.00263977 C55.80047952 408.55627186 52.83290467 406.26342367 49.86465454 403.95967102 C44.28411908 399.62234275 38.88131881 395.11873466 33.53677368 390.49482727 C28.27113769 385.94140467 22.89806864 381.52998956 17.48965454 377.14717102 C11.58579601 372.34974571 5.72232403 367.5125535 -0.07284546 362.58467102 C-4.56642637 358.76646754 -9.11026756 355.02858432 -13.72909546 351.36201477 C-55.08784442 318.42604474 -55.08784442 318.42604474 -63.51034546 296.14717102 C-63.86271932 295.439544 -64.21509317 294.73191698 -64.57814503 294.00284672 C-65.89899001 289.9566086 -65.78264395 286.1633214 -65.75758362 281.93292236 C-65.75999803 281.00198354 -65.76241245 280.07104471 -65.76490003 279.11189562 C-65.77053813 275.99068896 -65.76187274 272.86968687 -65.75326538 269.74848938 C-65.75433829 267.51109258 -65.75627709 265.27369604 -65.75901794 263.03630066 C-65.76387001 256.95537905 -65.75620442 250.87453071 -65.7460649 244.79361796 C-65.7372822 238.42640818 -65.73904194 232.05920069 -65.73942566 225.69198608 C-65.73848859 214.99124274 -65.72985592 204.2905304 -65.71615601 193.58979797 C-65.70209201 182.59890733 -65.69498427 171.60804149 -65.69564819 160.61714172 C-65.69568815 159.94121819 -65.69572811 159.26529466 -65.69576927 158.5688886 C-65.69580963 157.89409774 -65.69584998 157.21930688 -65.69589156 156.52406782 C-65.69661844 143.35924886 -65.68961559 130.19444004 -65.68044496 117.02962422 C-65.67831817 113.24407293 -65.67760437 109.45852357 -65.67720604 105.67297173 C-65.67619722 99.70827864 -65.67005674 93.74361139 -65.6600399 87.77892685 C-65.65713267 85.59572445 -65.65588591 83.41251907 -65.65646744 81.2293148 C-65.66096496 54.05118465 -62.76580279 36.44440285 -42.80331421 16.43623352 C-30.91676145 5.50407551 -15.95443839 -0.00376655 0 0 Z " fill="#141414" transform="translate(249.51034545898438,170.8528289794922)"/>
<path d="M0 0 C5.70250488 2.61176531 10.08403541 6.54444022 14.609375 10.82421875 C17.08040688 13.12444198 19.63199915 15.22069229 22.27734375 17.31640625 C27.88086174 21.84385748 33.10175308 26.73490718 38.31884766 31.69970703 C42.24579154 35.43282543 46.24067489 39.05992006 50.33325195 42.61083984 C52.63273099 44.60880351 54.8942267 46.64689486 57.15234375 48.69140625 C60.13297096 51.38124056 63.12479608 54.05450989 66.15234375 56.69140625 C70.05163701 60.08756489 73.88863475 63.55042468 77.7265625 67.015625 C79.78937163 68.86584188 81.86946745 70.69085434 83.96484375 72.50390625 C88.18455581 76.17582608 92.27337486 79.98513438 96.37426758 83.78833008 C99.26563526 86.4651188 102.17106323 89.11436715 105.15234375 91.69140625 C108.72586161 94.78037932 112.18945489 97.97982838 115.65234375 101.19140625 C119.73533248 104.97774531 123.85004189 108.70907758 128.0625 112.3515625 C130.79604934 114.75810781 133.47348381 117.22443821 136.15234375 119.69140625 C139.45261251 122.73030802 142.76183722 125.75296725 146.15234375 128.69140625 C150.08401589 132.09885544 153.90595619 135.62270298 157.73266602 139.14672852 C160.48707803 141.67880741 163.25976874 144.18175893 166.08984375 146.62890625 C169.68193065 149.74104834 173.16784512 152.96014585 176.65234375 156.19140625 C180.15842345 159.44238963 183.6666224 162.68117084 187.27734375 165.81640625 C187.88835937 166.35136719 188.499375 166.88632812 189.12890625 167.4375 C190.67421745 168.77696859 192.23429746 170.09941755 193.80078125 171.4140625 C204.91329783 181.01953916 212.98258597 192.44717671 215.15234375 207.19140625 C215.43017661 212.45802074 215.41026 217.71660359 215.3828125 222.98828125 C215.38161803 224.51043661 215.3811681 226.03259272 215.38142395 227.55474854 C215.37986807 230.7284412 215.37164485 233.90201964 215.3581543 237.07568359 C215.34110766 241.13635677 215.33734218 245.19690554 215.33809948 249.25761032 C215.33782727 252.39405496 215.33233879 255.53047261 215.32509804 258.66690826 C215.32192557 260.16437832 215.3199473 261.66185141 215.31920433 263.15932465 C215.3170289 265.25047497 215.30826052 267.34149503 215.29760742 269.43261719 C215.29379562 270.62014587 215.28998383 271.80767456 215.28605652 273.03118896 C215.16582073 275.87288626 214.80499009 278.42940968 214.15234375 281.19140625 C213.49234375 281.19140625 212.83234375 281.19140625 212.15234375 281.19140625 C212.04792969 281.92488281 211.94351563 282.65835937 211.8359375 283.4140625 C210.19739732 290.07121718 204.98674105 294.99478824 199.33984375 298.56640625 C189.77908739 304.19425251 179.98006773 304.63320158 169.13427734 304.59545898 C167.64153536 304.60117234 166.14879774 304.60814031 164.65606689 304.61625671 C160.62672391 304.634104 156.59759974 304.63303485 152.5682292 304.62731433 C149.18917348 304.62420791 145.81015891 304.63033152 142.43110907 304.63635308 C134.44768977 304.65037123 126.46437752 304.64886176 118.48095703 304.63745117 C110.28416569 304.6259934 102.08770246 304.64001227 93.89095438 304.66684765 C86.82132351 304.6891142 79.75179479 304.69561691 72.68213141 304.68977123 C68.47418908 304.68642398 64.26645654 304.68866529 60.05854416 304.70602226 C56.09384885 304.72166345 52.12963269 304.7173492 48.16495514 304.69871712 C46.72359168 304.69507704 45.28219135 304.69800284 43.84086227 304.70860291 C21.8656595 304.85766187 2.91004939 297.58529471 -13.09765625 282.31640625 C-17.24977153 277.98597927 -20.55230079 273.18706797 -23.84765625 268.19140625 C-24.30011719 267.59199219 -24.75257813 266.99257813 -25.21875 266.375 C-32.99712324 255.54343353 -35.00190667 240.17666068 -34.98809814 227.21672058 C-34.99106927 226.33574796 -34.99404039 225.45477533 -34.99710155 224.54710656 C-35.00574484 221.6071596 -35.00729307 218.66725356 -35.00878906 215.72729492 C-35.01342025 213.61443496 -35.01844532 211.50157582 -35.02383423 209.38871765 C-35.03692939 203.65723887 -35.04339731 197.92577178 -35.04784489 192.19428039 C-35.05077968 188.61129777 -35.0548852 185.02831832 -35.05934906 181.4453373 C-35.07301508 170.2284138 -35.08268667 159.01149758 -35.08655095 147.79456633 C-35.09103259 134.85794454 -35.10858927 121.92142835 -35.13755155 108.98483866 C-35.15917938 98.97612931 -35.16925579 88.96744964 -35.17059207 78.95871717 C-35.1716391 72.9847932 -35.17752573 67.01096863 -35.19541168 61.03706932 C-35.2119118 55.4170405 -35.21403836 49.79718562 -35.20527267 44.17714119 C-35.2045034 42.11887012 -35.20883047 40.06058962 -35.21873093 38.00234222 C-35.32212059 15.16233497 -35.32212059 15.16233497 -30.015625 7.5703125 C-29.36207031 6.97089844 -28.70851562 6.37148438 -28.03515625 5.75390625 C-27.06642578 4.82771484 -27.06642578 4.82771484 -26.078125 3.8828125 C-18.35668371 -1.97250113 -9.25673988 -2.628457 0 0 Z " fill="#151515" transform="translate(218.84765625,592.80859375)"/>
<path d="M0 0 C3.291098 1.98309751 5.87026364 4.4518652 8.4375 7.3125 C8.95346973 7.76307416 9.46943946 8.21364831 10.00104463 8.67787623 C14.49282279 13.78932451 13.72918323 23.38643186 13.70492554 29.84881592 C13.70945665 30.75403087 13.71398776 31.65924582 13.71865618 32.59189153 C13.73121951 35.59614507 13.72968506 38.60021545 13.72802734 41.60449219 C13.73401763 43.7704186 13.74082432 45.93634289 13.74838257 48.1022644 C13.7659986 53.9660731 13.77073609 59.82982337 13.77201414 65.69365597 C13.77343876 69.36262298 13.77771425 73.03157529 13.78300858 76.70053864 C13.80149414 89.51586342 13.80968101 102.33114669 13.80810547 115.14648438 C13.8069044 127.06731947 13.82800387 138.98797342 13.8595928 150.90876269 C13.88579571 161.1647332 13.89647108 171.42064468 13.89519465 181.67664838 C13.89468621 187.79264278 13.90030411 193.90847608 13.92155075 200.02443695 C13.94100082 205.77999398 13.94101129 211.53523733 13.92651749 217.29080582 C13.92443671 219.39416338 13.92908629 221.49754093 13.9412384 223.60086441 C14.06609646 246.7228018 8.21878824 265.93670322 -8.09179688 282.87841797 C-12.20901035 286.89311119 -16.76781834 290.1649926 -21.5625 293.3125 C-22.37589844 293.87582031 -23.18929687 294.43914062 -24.02734375 295.01953125 C-42.44599362 306.51300155 -65.58845992 305.05467741 -86.4266057 304.95119596 C-90.65211541 304.93456592 -94.87758999 304.9436542 -99.1031189 304.94871521 C-106.18164762 304.95320448 -113.2599093 304.93755284 -120.33837891 304.90942383 C-128.49405652 304.87726188 -136.64925641 304.87744597 -144.80496848 304.8946386 C-152.70354935 304.9105472 -160.60195688 304.90375032 -168.50053024 304.88670158 C-171.84079038 304.87987276 -175.1809098 304.88081982 -178.52116776 304.88824654 C-182.45320687 304.89595708 -186.38470678 304.88362979 -190.31665421 304.85639763 C-191.75043641 304.84956705 -193.1842695 304.84935793 -194.61804962 304.85661316 C-207.56377295 304.91453325 -216.95958864 302.80818293 -226.40234375 293.6796875 C-229.33539599 290.46552899 -231.65276571 287.21844712 -233.5625 283.3125 C-234.32578613 281.94001099 -234.32578613 281.94001099 -235.10449219 280.53979492 C-237.52133513 274.82860292 -236.96974104 268.64977607 -236.92578125 262.55859375 C-236.92526127 261.21208192 -236.92578428 259.86556932 -236.92729187 258.51905823 C-236.92720244 255.70065931 -236.91684212 252.8825481 -236.89868164 250.06420898 C-236.87614894 246.49302897 -236.87542572 242.92227406 -236.88219929 239.35104275 C-236.88558234 236.56849042 -236.87882645 233.78603075 -236.86907005 231.00349617 C-236.86346457 229.05966587 -236.86463922 227.11581969 -236.86604309 225.17198181 C-236.71036881 205.28588812 -233.25974329 190.084623 -219.0625 175.5625 C-216.12572659 172.76369581 -213.06899524 170.10854463 -209.99609375 167.4609375 C-206.79654956 164.63629977 -203.68194338 161.72502264 -200.5625 158.8125 C-196.30335785 154.83886508 -192.0191505 150.91610428 -187.609375 147.109375 C-184.40068898 144.29258957 -181.26882472 141.39218022 -178.12670898 138.50170898 C-174.13168906 134.8283513 -170.10586183 131.19089368 -166.06640625 127.56640625 C-163.34642109 125.11799527 -160.64154439 122.65349921 -157.9375 120.1875 C-154.19137742 116.77763526 -150.41309488 113.41271028 -146.58984375 110.08984375 C-143.35710117 107.2557438 -140.17504549 104.36564714 -136.984375 101.484375 C-134.94448798 99.65505696 -132.88646218 97.85284342 -130.8125 96.0625 C-126.34027465 92.17202754 -122.0274087 88.1125017 -117.6940918 84.0690918 C-114.70994307 81.28956128 -111.71752681 78.53443771 -108.625 75.875 C-104.66739408 72.46444976 -100.87265031 68.88558664 -97.0625 65.3125 C-92.65432361 61.17886275 -88.2302219 57.08997255 -83.6484375 53.1484375 C-80.73886823 50.58758065 -77.90405922 47.94836456 -75.0625 45.3125 C-70.97955422 41.5261166 -66.8647999 37.79482698 -62.65234375 34.15234375 C-59.91879401 31.74579809 -57.24137646 29.27945051 -54.5625 26.8125 C-50.63299855 23.19463188 -46.67010661 19.6256245 -42.62890625 16.1328125 C-39.11559893 13.03791418 -35.69998469 9.83493809 -32.2734375 6.64453125 C-23.23258893 -1.13268286 -11.58816111 -5.46235838 0 0 Z " fill="#141514" transform="translate(893.5625,593.6875)"/>
<path d="M0 0 C2.54811977 3.82217965 3.12545205 6.6483407 3.12304783 11.17789078 C3.12503888 12.00793633 3.12702993 12.83798188 3.12908131 13.69318032 C3.12616847 14.59979275 3.12325563 15.50640519 3.12025452 16.44049072 C3.12153615 17.89119481 3.12153615 17.89119481 3.12284368 19.37120605 C3.12449416 22.62021074 3.11898413 25.8691641 3.11352539 29.11816406 C3.1132434 31.44384764 3.11340149 33.76953131 3.1139679 36.09521484 C3.11425541 42.41709818 3.10836612 48.73896263 3.10139394 55.06084156 C3.09578477 60.99580108 3.09477133 66.93075986 3.09374207 72.86572167 C3.09155342 84.62109666 3.08489842 96.37646471 3.07543945 108.13183594 C3.06626049 119.55110642 3.05918202 130.97037501 3.05493164 142.38964844 C3.05466892 143.0935285 3.05440619 143.79740856 3.05413551 144.52261832 C3.05283047 148.05377659 3.05156676 151.58493487 3.05032361 155.11609316 C3.03995684 184.41073325 3.02226928 213.70536655 3 243 C2.67 243 2.34 243 2 243 C2 167.1 2 91.2 2 13 C1.34 13 0.68 13 0 13 C0 8.71 0 4.42 0 0 Z " fill="#353435" transform="translate(904,219)"/>
<path d="M0 0 C0.33 0 0.66 0 1 0 C1.09363052 22.7057196 1.16407072 45.41140716 1.20724869 68.11728096 C1.22783391 78.66109819 1.25587696 89.20479515 1.30175781 99.74853516 C1.3417496 108.94334462 1.36746214 118.13806694 1.37635398 127.33296096 C1.38154789 132.19718272 1.39367048 137.06115526 1.42292023 141.92529678 C1.45028477 146.51356917 1.45840295 151.10149217 1.45243073 155.68983841 C1.45352163 157.36426194 1.46134928 159.03869845 1.4768219 160.71305084 C1.56889302 171.20023452 0.50218421 180.05799496 -3 190 C-3.66 188.68 -4.32 187.36 -5 186 C-4.34 186 -3.68 186 -3 186 C-3.185625 185.443125 -3.37125 184.88625 -3.5625 184.3125 C-4.07551165 181.600867 -3.6640724 179.65628961 -3 177 C-2.34 177 -1.68 177 -1 177 C-0.67 118.59 -0.34 60.18 0 0 Z " fill="#3D3C3D" transform="translate(906,660)"/>
<path d="M0 0 C0.33 0 0.66 0 1 0 C1.10006095 5.58263117 1.17202215 11.16472237 1.21972656 16.74804688 C1.23964608 18.64104321 1.26679189 20.53397962 1.30175781 22.42675781 C1.51000992 34.00312496 1.09612003 44.07162565 -3 55 C-3.66 53.68 -4.32 52.36 -5 51 C-4.34 51 -3.68 51 -3 51 C-3.185625 50.443125 -3.37125 49.88625 -3.5625 49.3125 C-4.07551165 46.600867 -3.6640724 44.65628961 -3 42 C-2.34 42 -1.68 42 -1 42 C-0.67 28.14 -0.34 14.28 0 0 Z " fill="#313131" transform="translate(906,795)"/>
<path d="M0 0 C3.34944548 5.02416822 3.09834146 9.09951257 3 15 C2.67 14.34 2.34 13.68 2 13 C1.34 13 0.68 13 0 13 C0 8.71 0 4.42 0 0 Z " fill="#525252" transform="translate(904,219)"/>
<path d="M0 0 C0.66 0.33 1.32 0.66 2 1 C-3.96583144 8.66742597 -3.96583144 8.66742597 -9 10 C-8.06409496 8.8944811 -7.12620142 7.79064547 -6.1875 6.6875 C-5.66542969 6.07261719 -5.14335937 5.45773438 -4.60546875 4.82421875 C-3.12827531 3.14575321 -1.59960869 1.56117966 0 0 Z " fill="#2E2E2F" transform="translate(209,185)"/>
<path d="M0 0 C0.33 0.99 0.66 1.98 1 3 C-1.97 5.475 -1.97 5.475 -5 8 C-5.66 7.34 -6.32 6.68 -7 6 C-4.69 4.02 -2.38 2.04 0 0 Z " fill="#252525" transform="translate(887,871)"/>
<path d="M0 0 C2.5 -0.375 2.5 -0.375 5 0 C5.66 0.99 6.32 1.98 7 3 C4.03 3 1.06 3 -2 3 C-1.34 2.01 -0.68 1.02 0 0 Z " fill="#1D1D1D" transform="translate(838,894)"/>
<path d="M0 0 C1.0326802 2.78823655 1.04509293 3.8677274 0.0625 6.75 C-0.288125 7.4925 -0.63875 8.235 -1 9 C-1.66 8.01 -2.32 7.02 -3 6 C-2.34 6 -1.68 6 -1 6 C-1.20625 5.38125 -1.4125 4.7625 -1.625 4.125 C-1.74875 3.42375 -1.8725 2.7225 -2 2 C-1.34 1.34 -0.68 0.68 0 0 Z " fill="#383738" transform="translate(905,462)"/>
</svg>
