<?xml version="1.0" encoding="UTF-8"?>
<svg version="1.1" xmlns="http://www.w3.org/2000/svg" width="1254" height="1254">
<path d="M0 0 C413.82 0 827.64 0 1254 0 C1254 413.82 1254 827.64 1254 1254 C840.18 1254 426.36 1254 0 1254 C0 840.18 0 426.36 0 0 Z " fill="#000000" transform="translate(0,0)"/>
<path d="M0 0 C0.93397287 -0.00445784 1.86794574 -0.00891569 2.83022082 -0.01350862 C3.85811736 -0.01332426 4.8860139 -0.01313989 5.94505882 -0.01294994 C7.58096664 -0.01846498 7.58096664 -0.01846498 9.24992311 -0.02409142 C12.92323924 -0.03514983 16.5965271 -0.03897577 20.26985741 -0.04278088 C22.89605868 -0.04904391 25.52225907 -0.05569057 28.14845848 -0.0626936 C36.04349685 -0.08245689 43.9385365 -0.09252456 51.83359343 -0.10142139 C55.55223109 -0.10580497 59.27086733 -0.11117164 62.98950386 -0.11641026 C75.35273569 -0.13342327 87.71596663 -0.1479168 100.07920837 -0.155159 C103.28761483 -0.15706887 106.49602129 -0.15898921 109.70442772 -0.16094494 C110.90056891 -0.16167055 110.90056891 -0.16167055 112.12087457 -0.16241082 C125.03476801 -0.1707087 137.94856874 -0.19604119 150.86242171 -0.22852562 C164.12325753 -0.26161064 177.38404626 -0.27960911 190.64492357 -0.28280324 C198.08939383 -0.28496713 205.53372894 -0.29369781 212.97815895 -0.31926441 C219.31917503 -0.34099126 225.66002316 -0.34901218 232.00107224 -0.33929763 C235.2346838 -0.33475841 238.46787728 -0.33880687 241.70145607 -0.35605907 C245.21263629 -0.37374292 248.72294053 -0.36668792 252.23412132 -0.35352612 C253.24863353 -0.36449536 254.26314574 -0.37546461 255.30840075 -0.38676625 C262.44868722 -0.32224563 268.89510263 0.87321141 274.32508624 5.82567519 C281.16277939 13.11574039 281.91024076 20.24674305 281.85149193 29.86922169 C281.8561719 31.04703235 281.86085187 32.224843 281.86567366 33.4383449 C281.87554792 36.69471426 281.87202316 39.9507464 281.86271501 43.20710719 C281.8559162 46.7238505 281.8664098 50.24054888 281.87465477 53.75728321 C281.88798504 60.64118887 281.88511765 67.52499633 281.87641685 74.40890581 C281.86963848 80.0036616 281.86872424 85.59838989 281.8719883 91.19314861 C281.872448 91.98977188 281.87290769 92.78639515 281.87338132 93.60715852 C281.87434051 95.22552941 281.87531315 96.84390028 281.8762991 98.46227115 C281.88485078 113.63247145 281.87502206 128.80261733 281.858898 143.97280871 C281.84549243 156.98830999 281.8478253 170.00373101 281.86165428 183.01923084 C281.87770957 198.13713113 281.88402954 213.25498375 281.87481749 228.37289137 C281.87386185 229.98496401 281.87291874 231.59703665 281.8719883 233.20910931 C281.87152547 234.00226388 281.87106264 234.79541845 281.87058579 235.612608 C281.86799594 241.20087424 281.87236674 246.78911023 281.87942696 252.37737179 C281.88784147 259.18718809 281.88556277 265.99690065 281.86958472 272.80670507 C281.8617017 276.28088724 281.85861085 279.75489645 281.86853218 283.22907734 C281.87670637 286.99495984 281.8664752 290.76035295 281.85149193 294.52620411 C281.85818409 295.62454533 281.86487626 296.72288655 281.87177122 297.85451084 C281.82914473 303.36231321 281.62673948 307.40087143 278.470541 312.13422108 C276.5889492 313.98553944 276.5889492 313.98553944 274.45882225 315.53656483 C273.26120262 316.41804188 273.26120262 316.41804188 272.03938866 317.31732655 C271.19166893 317.91690174 270.3439492 318.51647694 269.470541 319.13422108 C268.200895 320.03938465 268.200895 320.03938465 266.90559959 320.96283436 C264.16871334 322.89246309 261.4159226 324.79723424 258.658041 326.69672108 C256.61749985 328.10922645 254.57713856 329.52199169 252.53694725 330.93500233 C251.52003807 331.63834705 250.50312889 332.34169178 249.45540428 333.06634998 C244.99230827 336.15831982 240.54259164 339.26923429 236.095541 342.38422108 C235.27529442 342.95857899 234.45504784 343.5329369 233.6099453 344.12469959 C227.69967168 348.26620088 221.80184811 352.42512437 215.9092617 356.59174061 C210.37990293 360.49916278 204.83290825 364.38100059 199.283041 368.25922108 C193.65891065 372.19015636 188.0457958 376.13423913 182.470541 380.13422108 C172.66114683 387.17022537 162.74423581 394.05400832 152.84749413 400.96625233 C150.26309962 402.77165582 147.67929012 404.57789413 145.095541 406.38422108 C143.85187767 407.25240467 143.85187767 407.25240467 142.58308983 408.13812733 C138.79499211 410.78696739 135.01929524 413.44926351 131.27913475 416.16547108 C130.32176414 416.85914783 130.32176414 416.85914783 129.34505272 417.56683826 C127.66592443 418.78761114 125.99183789 420.0153106 124.31819725 421.24359608 C119.48776013 424.45063526 115.73104373 425.79974057 109.9939785 424.98968983 C101.97741555 422.27200053 95.55739751 414.45754592 89.83382225 408.47015858 C87.19323146 405.86012008 84.41777761 403.45325531 81.61385155 401.02142811 C78.06602769 397.89753263 74.64877391 394.63811019 71.220541 391.38422108 C65.30539529 385.79326343 59.35632556 380.24732872 53.345541 374.75922108 C44.57027671 366.74702325 35.87798496 358.64876479 27.2217617 350.50824451 C22.72637366 346.28873093 18.17035897 342.15104544 13.56819725 338.04828358 C11.00774226 335.711928 8.58467626 333.26030541 6.15413475 330.79047108 C4.45896113 329.12282927 2.70850599 327.56226488 0.908041 326.00922108 C-3.0490538 322.57402657 -6.96221707 319.09387623 -10.841959 315.57172108 C-11.45305519 315.02950916 -12.06415138 314.48729725 -12.69376564 313.92865467 C-13.27505226 313.39707752 -13.85633888 312.86550037 -14.45524025 312.31781483 C-14.97513527 311.84916004 -15.49503029 311.38050526 -16.0306797 310.89764881 C-21.12362327 304.9054137 -20.96032615 299.05534276 -20.92386818 291.5708971 C-20.92995928 290.39943555 -20.93605039 289.227974 -20.94232607 288.02101362 C-20.95607977 284.77766039 -20.95641187 281.53462926 -20.9509511 278.29126167 C-20.94827841 274.79012867 -20.96281716 271.2890602 -20.97504616 267.78795338 C-20.99609229 260.93199474 -21.00064148 254.07612068 -20.99885827 247.22013356 C-20.99755024 241.64682187 -21.00135691 236.07353656 -21.00878334 230.50022984 C-21.01088255 228.89435144 -21.01298015 227.28847305 -21.01507616 225.68259466 C-21.01611969 224.88328281 -21.01716322 224.08397096 -21.01823837 223.26043753 C-21.03713743 208.14598477 -21.03609156 193.03158055 -21.02926904 177.91712086 C-21.02369378 164.09416378 -21.04451879 150.27139206 -21.07762951 136.4484783 C-21.11137372 122.25075794 -21.12653394 108.05312636 -21.12191248 93.85536516 C-21.11966853 85.88614151 -21.12490001 77.91708918 -21.14980507 69.94789982 C-21.17082768 63.16332272 -21.17440082 56.37901086 -21.15550548 49.59442283 C-21.14635335 46.13405707 -21.1451876 42.67418572 -21.16586113 39.2138586 C-21.18400105 35.45929052 -21.17134071 31.70604018 -21.15091896 27.95151234 C-21.16343681 26.86220563 -21.17595466 25.77289891 -21.18885183 24.65058291 C-21.0940465 16.5237966 -18.90930572 11.74310503 -13.3966465 5.85687733 C-12.73922462 5.30902576 -12.08180275 4.7611742 -11.404459 4.19672108 C-10.74188087 3.63082264 -10.07930275 3.0649242 -9.3966465 2.48187733 C-6.31605514 0.25843796 -3.67917366 0.0081431 0 0 Z " fill="#FDFDFD" transform="translate(708.5294589996338,208.86577892303467)"/>
<path d="M0 0 C0.94293071 -0.00768229 1.88586142 -0.01536458 2.85736579 -0.02327967 C3.89013138 -0.0215467 4.92289698 -0.01981374 5.9869585 -0.01802826 C7.63639862 -0.02694163 7.63639862 -0.02694163 9.31916076 -0.03603506 C13.01703572 -0.05342782 16.71478132 -0.05642711 20.41269398 -0.0594101 C23.05875226 -0.06866517 25.70479873 -0.07867305 28.35085011 -0.08950043 C35.54932828 -0.11665713 42.74778416 -0.12871519 49.94630504 -0.13752174 C54.44236234 -0.1430488 58.93841105 -0.15152396 63.43446255 -0.16053009 C75.88608955 -0.18491512 88.33770968 -0.20551317 100.78936005 -0.21228027 C101.58621054 -0.21271941 102.38306104 -0.21315854 103.20405852 -0.21361098 C104.40217515 -0.21426581 104.40217515 -0.21426581 105.62449616 -0.21493387 C107.24302304 -0.2158208 108.86154992 -0.21671393 110.48007679 -0.21761322 C111.28291998 -0.21805608 112.08576317 -0.21849894 112.91293494 -0.21895522 C125.91735543 -0.22684863 138.9215516 -0.26174878 151.92588546 -0.30833226 C165.28168105 -0.35578794 178.63736417 -0.3806853 191.99324542 -0.38301611 C199.49030448 -0.38484815 206.98707134 -0.39631505 214.4840498 -0.43265533 C220.86902139 -0.4634965 227.25361051 -0.47367583 233.63864245 -0.45717913 C236.89471919 -0.44937888 240.14986723 -0.45443965 243.40588093 -0.47929382 C246.94146159 -0.50469746 250.47507294 -0.493002 254.01064014 -0.47212982 C255.03225213 -0.48824263 256.05386412 -0.50435544 257.10643405 -0.52095652 C264.34494259 -0.42116119 268.79486505 1.60096631 274.31625843 6.26285553 C276.47250843 8.49332428 276.47250843 8.49332428 277.81625843 10.45035553 C278.28032093 11.10391022 278.74438343 11.7574649 279.22250843 12.43082428 C281.15830486 15.67328329 281.44324847 18.35786424 281.45327282 22.04498577 C281.46088463 23.53047162 281.46088463 23.53047162 281.46865022 25.04596728 C281.46914798 26.13680111 281.46964574 27.22763495 281.47015858 28.35152435 C281.47454083 29.50817197 281.47892308 30.66481959 281.48343813 31.85651714 C281.4945068 35.07234539 281.50105184 38.28814617 281.50561929 41.5039891 C281.51157576 44.97038944 281.52318548 48.43677185 281.5339098 51.9031601 C281.55843256 60.27724447 281.57306065 68.65133477 281.58596987 77.025444 C281.58968185 79.39060383 281.59365508 81.75576308 281.59772253 84.12092233 C281.62295881 98.80786158 281.64501218 113.49480177 281.65745068 128.18175793 C281.66038038 131.58370912 281.66334204 134.98566027 281.66635609 138.38761139 C281.66710214 139.233151 281.66784819 140.0786906 281.66861685 140.94985262 C281.68127031 154.64689044 281.71449333 168.34379843 281.75615792 182.04077556 C281.79858229 196.10278435 281.82214627 210.16472669 281.82737124 224.22679931 C281.83078476 232.12231109 281.8425329 240.01761999 281.87547398 247.91306877 C281.90348261 254.63731101 281.91447034 261.36130877 281.90327851 268.08560481 C281.89809385 271.51558848 281.90096496 274.94506027 281.92574406 278.37496948 C281.94836757 282.09683074 281.94017009 285.81740125 281.92426014 289.53926849 C281.93814223 290.61894872 281.95202431 291.69862894 281.96632707 292.81102675 C281.8762987 301.35544656 279.2796578 305.92737014 273.70297718 312.20426178 C272.81223499 313.06922272 271.92149281 313.93418365 271.00375843 314.82535553 C270.52519398 315.29296295 270.04662952 315.76057037 269.55356312 316.24234772 C266.18828283 319.50408092 262.70775601 322.61157711 259.14438343 325.65348053 C256.67591874 327.82657338 254.4009048 330.16757922 252.09750843 332.51285553 C249.59729658 334.96920402 246.93945327 337.22594921 244.28500843 339.51285553 C241.80989399 341.71295725 239.50880116 344.05700067 237.19052601 346.41983795 C235.3862491 348.19403182 233.52796152 349.85218215 231.60922718 351.50113678 C227.34377263 355.21001467 223.22853851 359.06016105 219.12875843 362.95035553 C214.02923236 367.7702427 208.91963069 372.57659833 203.75375843 377.32535553 C198.9578822 381.73641925 194.19227493 386.17850815 189.44125843 390.63785553 C188.77062366 391.2672403 188.0999889 391.89662506 187.40903187 392.54508209 C186.05240882 393.81834088 184.69580076 395.09161563 183.33920765 396.36490631 C178.24639253 401.14303143 173.14584311 405.91261277 168.02963734 410.66568756 C166.38310548 412.20054242 164.74560444 413.74453369 163.10922718 415.29019928 C162.14629749 416.18867584 161.18336781 417.0871524 160.19125843 418.01285553 C159.36368031 418.79144928 158.53610218 419.57004303 157.68344593 420.37223053 C153.60929514 423.62617275 149.7130119 424.81148623 144.46469593 424.62613678 C136.61762088 423.29926773 129.81638503 416.85735731 123.55453968 412.31363678 C118.5431067 408.68734014 113.4604923 405.16462567 108.37875843 401.63785553 C107.39850697 400.95698883 106.4182555 400.27612213 105.40829945 399.57462311 C103.38888488 398.17223825 101.36927023 396.77014146 99.34946156 395.36832428 C84.80090688 385.2695851 70.27121898 375.14424504 55.76791859 364.98062897 C52.45339198 362.6582819 49.13778951 360.33747355 45.82211781 358.01676178 C43.32394884 356.26823821 40.82596277 354.51945356 38.32797718 352.77066803 C34.95622312 350.41037429 31.58375433 348.05110643 28.21078968 345.69254303 C18.89735046 339.17902451 9.58569623 332.66313245 0.31625843 326.08707428 C-2.35654965 324.19253268 -5.04458369 322.32303073 -7.74624157 320.46988678 C-8.71134655 319.80037994 -8.71134655 319.80037994 -9.6959486 319.11734772 C-10.89465708 318.28594991 -12.09841313 317.46175878 -13.30825329 316.64664459 C-16.85175102 314.17165101 -18.94920763 312.22263573 -20.68374157 308.26285553 C-21.1332342 304.38663886 -21.09241363 300.52842873 -21.07142162 296.62996674 C-21.07680716 295.43894185 -21.0821927 294.24791696 -21.08774143 293.02080041 C-21.09957536 289.71810778 -21.09794848 286.41591955 -21.09057462 283.1132468 C-21.08584755 279.55007064 -21.09834882 275.98694878 -21.10859203 272.42378998 C-21.12579547 265.44402872 -21.12661672 258.46435743 -21.12137913 251.48458048 C-21.11733845 245.81065486 -21.11877978 240.13675584 -21.12412739 234.4628315 C-21.12487581 233.65541325 -21.12562423 232.847995 -21.12639533 232.01610953 C-21.12792681 230.37583904 -21.12946516 228.73556856 -21.1310103 227.09529809 C-21.14474136 211.70949417 -21.13929379 196.32374108 -21.12782509 180.93793831 C-21.11789586 166.865982 -21.13082691 152.79415724 -21.15475928 138.72222122 C-21.17915067 124.27141202 -21.18875782 109.82066409 -21.18210655 95.36983472 C-21.17861393 87.25754396 -21.18084902 79.14535434 -21.19835758 71.03307915 C-21.21308023 64.12590138 -21.21371445 57.21889592 -21.19628667 50.31172153 C-21.18777399 46.78864919 -21.18563317 43.26588465 -21.20093822 39.74282837 C-21.21733695 35.92062644 -21.20263833 32.09889942 -21.18494701 28.27669525 C-21.19935452 26.61252989 -21.19935452 26.61252989 -21.21405309 24.91474503 C-21.14317381 17.47606043 -20.12721591 11.74668309 -14.68374157 6.23941803 C-14.02374157 5.7934024 -13.36374157 5.34738678 -12.68374157 4.88785553 C-12.02374157 4.42637115 -11.36374157 3.96488678 -10.68374157 3.48941803 C-6.98484827 1.22095613 -4.39915361 0.0134764 0 0 Z " fill="#FDFDFD" transform="translate(285.68374156951904,208.73714447021484)"/>
<path d="M0 0 C4.61855923 2.78546076 8.46996492 6.65910777 12.33056641 10.38818359 C14.73477621 12.70941687 17.21068188 14.94387731 19.6875 17.1875 C20.56921875 17.99703125 21.4509375 18.8065625 22.359375 19.640625 C24.99128804 21.99221594 27.68939509 24.22331262 30.4375 26.4375 C35.56747127 30.57811967 40.404648 34.9726732 45.23828125 39.44921875 C49.79961242 43.6621597 54.49022292 47.71432894 59.21484375 51.7421875 C65.75953252 57.32537706 72.22174235 62.96677348 78.56640625 68.77734375 C83.02489278 72.8493804 87.58497728 76.79842118 92.18359375 80.7109375 C99.01927657 86.53244664 105.73564737 92.4475342 112.328125 98.54296875 C115.18322326 101.1684904 118.08765244 103.7266784 121.01953125 106.265625 C123.31133155 108.27264538 125.55996752 110.32402851 127.8125 112.375 C131.23229328 115.46636801 134.71958524 118.42459032 138.3125 121.3125 C143.12665588 125.20320708 147.64924334 129.33000466 152.16333008 133.55786133 C155.51064243 136.67524726 158.92986788 139.63559167 162.5 142.5 C167.26108478 146.31994011 171.71273025 150.38938819 176.1640625 154.55859375 C179.51116869 157.67568554 182.93014141 160.63581113 186.5 163.5 C191.90436782 167.83927344 196.94955123 172.50396415 202.015625 177.2265625 C206.63353761 181.53105514 211.40761607 185.64312405 216.2109375 189.73828125 C222.74871905 195.31650406 229.21162923 200.94456236 235.5390625 206.76171875 C237.74030735 208.76380335 239.98164116 210.69993685 242.25 212.625 C244.8860539 214.94169624 247.40428671 217.32098674 249.8125 219.875 C250.35519531 220.44992187 250.89789062 221.02484375 251.45703125 221.6171875 C256.52558797 229.44457889 256.44538996 237.8723669 256.43579102 246.92993164 C256.44478364 248.31728419 256.4549953 249.70462928 256.46632385 251.09196472 C256.4926648 254.83569194 256.49985022 258.57921309 256.50177121 262.32302403 C256.50391169 264.66611481 256.51033127 267.00915406 256.51826286 269.35223198 C256.54595613 277.53767063 256.55827502 285.72296332 256.5559082 293.90844727 C256.55410405 301.52214472 256.58581089 309.13520579 256.63313919 316.74874216 C256.67242036 323.30274024 256.6884578 329.85653059 256.68654197 336.41064543 C256.68577906 340.31780064 256.69421898 344.22438862 256.72607613 348.13142586 C256.75521689 351.80489729 256.75529374 355.47726254 256.73352623 359.150774 C256.72891764 361.13160719 256.75385892 363.11244105 256.77984619 365.09310913 C256.70855504 371.85087665 256.170938 376.24185013 251.67750454 381.44220638 C246.0588479 386.65990162 241.62095952 387.14958059 234.10891724 387.15390015 C233.18855993 387.1582824 232.26820263 387.16266465 231.31995571 387.1671797 C228.22257911 387.1805802 225.12523097 387.18674949 222.02783203 387.19287109 C219.81205618 387.20077134 217.59628162 387.20904024 215.38050842 387.21765137 C208.08962231 387.24388971 200.79873042 387.25918506 193.5078125 387.2734375 C190.9972928 387.27879724 188.48677314 387.28417475 185.97625351 387.28956985 C175.52943782 387.311205 165.08262226 387.33009088 154.63578987 387.34119225 C151.92483643 387.34412176 149.21388303 387.34708344 146.50292969 387.35009766 C145.82916667 387.35084371 145.15540366 387.35158976 144.46122359 387.35235842 C133.56431966 387.36499235 122.66757964 387.39818841 111.77075221 387.43989949 C100.57105064 387.48241646 89.37140777 387.50549183 78.17162025 387.51111281 C71.88838502 387.51476087 65.60542731 387.52672398 59.32226944 387.55921555 C53.40426753 387.58937848 47.48670984 387.5955784 41.56864738 387.58383179 C39.40358636 387.58361171 37.23850424 387.5918614 35.07351494 387.60948563 C17.47234414 387.74489709 5.03875028 385.57031623 -8.1171875 372.97265625 C-15.77083256 364.98687188 -21.10867055 355.37204173 -21.1398077 344.20183849 C-21.14834456 342.4146107 -21.14834456 342.4146107 -21.15705389 340.5912773 C-21.15823376 339.28089014 -21.15941364 337.97050297 -21.16062927 336.6204071 C-21.16536089 335.21538538 -21.17051189 333.81036501 -21.17604691 332.40534621 C-21.18994981 328.53996433 -21.19753564 324.67459186 -21.2040199 320.80919135 C-21.21039248 317.49494776 -21.22046225 314.18071963 -21.23058056 310.86648568 C-21.26389414 299.94917148 -21.28542142 289.03184789 -21.30378041 278.11449954 C-21.30857563 275.2724566 -21.3135589 272.43041405 -21.31858563 269.58837152 C-21.3495513 251.94276283 -21.37623837 234.29715087 -21.39300442 216.65152264 C-21.39695395 212.5649636 -21.40095695 208.47840462 -21.4050293 204.3918457 C-21.40603766 203.37614425 -21.40704602 202.36044279 -21.40808494 201.3139625 C-21.42510021 184.85186166 -21.46622027 168.38991092 -21.51705229 151.92788341 C-21.5687996 135.03064799 -21.59794263 118.13348984 -21.6052013 101.23617584 C-21.60986659 91.74722877 -21.62464995 82.25852772 -21.6649456 72.76965904 C-21.69921296 64.69055141 -21.71319822 56.6117342 -21.70052146 48.53255805 C-21.69468723 44.41001003 -21.69861153 40.28807651 -21.7286911 36.1656208 C-21.7560095 32.39082507 -21.75558965 28.61708164 -21.73318065 24.84226296 C-21.72842393 22.83144019 -21.75324748 20.82061448 -21.77914995 18.80995291 C-21.71072879 12.27822147 -21.42654079 7.97691726 -16.67752224 3.24279338 C-11.4829516 -0.60560747 -6.27978279 -1.62752317 0 0 Z " fill="#FDFDFD" transform="translate(286,638)"/>
<path d="M0 0 C4.74424521 2.63569178 7.61931493 5.6079448 9.375 10.875 C9.46851545 12.72039457 9.50233934 14.56903273 9.50363445 16.41679478 C9.5068589 17.57657166 9.51008335 18.73634854 9.5134055 19.93127018 C9.5118569 21.21139624 9.5103083 22.4915223 9.50871277 23.81044006 C9.51058012 25.17946146 9.51288051 26.54848233 9.51557809 27.91750234 C9.52171233 31.68814831 9.52156058 35.45877215 9.52038372 39.22942197 C9.52018011 43.29299665 9.52569476 47.35656415 9.53044128 51.4201355 C9.53875819 59.38608375 9.54149663 67.35202461 9.54205366 75.31797684 C9.5425285 81.79427056 9.54458164 88.27056184 9.54775429 94.74685478 C9.55656508 113.10587191 9.56117321 131.46488318 9.56042381 149.82390244 C9.56036388 151.30942156 9.56036388 151.30942156 9.56030273 152.82495117 C9.56026185 153.81650628 9.56022097 154.80806139 9.56017885 155.82966363 C9.55977266 171.88881232 9.56933436 187.94793753 9.5834411 204.00707943 C9.5978094 220.49410529 9.60471098 236.98111971 9.60384732 253.46815199 C9.60351543 262.72516237 9.60625919 271.98214816 9.61702538 281.23915291 C9.62613652 289.12380162 9.62830071 297.0084146 9.62151595 304.89306629 C9.61825335 308.91450515 9.61818459 312.9358755 9.6268692 316.95730782 C9.63474703 320.64317891 9.6332897 324.32892732 9.62458507 328.01479547 C9.62233034 329.97070932 9.62986884 331.92662701 9.63782471 333.88252598 C9.5764931 349.59328094 5.90319569 362.10543554 -5.21484375 373.6875 C-18.74601157 385.96862477 -34.31649136 386.46658859 -51.60644531 386.40844727 C-53.82181368 386.41551375 -56.03717723 386.42426182 -58.25253296 386.43455505 C-64.23985166 386.4569697 -70.22690505 386.45412885 -76.21424961 386.44523358 C-81.21956689 386.44010985 -86.22483492 386.44742702 -91.23014712 386.45470566 C-103.71001829 386.472646 -116.189772 386.46631941 -128.66963276 386.44853585 C-139.49500143 386.43382341 -150.32009293 386.4484964 -161.14542595 386.47730602 C-172.28326539 386.50672505 -183.42100476 386.51715826 -194.5588882 386.50812382 C-200.80322778 386.50319682 -207.04735165 386.50539921 -213.29166412 386.52591133 C-219.158935 386.54426489 -225.02568976 386.53831311 -230.89293289 386.51371193 C-233.04395668 386.50870432 -235.1950198 386.51219244 -237.34601212 386.52486038 C-240.28589353 386.54080345 -243.22407768 386.52582796 -246.16387939 386.50318909 C-247.01174554 386.51502482 -247.85961169 386.52686054 -248.73317075 386.53905493 C-254.81206956 386.44416344 -258.91435283 384.73670227 -263.625 380.875 C-268.85901326 374.62264407 -268.19777984 367.88951018 -268.15844727 360.02026367 C-268.16551279 358.61674597 -268.17426047 357.21323589 -268.18455505 355.80973816 C-268.20699272 352.01195605 -268.20412201 348.21459181 -268.19523358 344.41676879 C-268.19010934 341.2385968 -268.19742818 338.06050235 -268.20470566 334.88233835 C-268.2216881 327.37909038 -268.21815713 319.87604584 -268.20141602 312.37280273 C-268.18450979 304.65131629 -268.20031197 296.9303958 -268.2326389 289.2089712 C-268.25940052 282.56325118 -268.26659274 275.91770661 -268.25812382 269.27193815 C-268.25321199 265.31001656 -268.2553143 261.34843505 -268.27591133 257.38655663 C-268.2943714 253.65736453 -268.28818578 249.92898062 -268.26371193 246.19983101 C-268.25637852 244.19316951 -268.27348096 242.18646429 -268.29153442 240.17987061 C-268.19126714 230.55034086 -266.18625023 223.29386627 -259.35546875 216.30078125 C-258.1883427 215.24745326 -257.00698226 214.20970116 -255.8125 213.1875 C-255.18794922 212.6313501 -254.56339844 212.0752002 -253.91992188 211.50219727 C-252.16666257 209.94574633 -250.39801345 208.4088528 -248.625 206.875 C-247.89925781 206.22789062 -247.17351563 205.58078125 -246.42578125 204.9140625 C-243.46173002 202.2779215 -240.43633619 199.71411624 -237.41796875 197.140625 C-236.21592754 196.11483908 -235.01411129 195.0887895 -233.8125 194.0625 C-233.20841309 193.54655273 -232.60432617 193.03060547 -231.98193359 192.49902344 C-227.25896371 188.45076354 -222.64615152 184.29903354 -218.05859375 180.09765625 C-213.60010722 176.0256196 -209.04002272 172.07657882 -204.44140625 168.1640625 C-198.68528544 163.26150179 -192.97720046 158.33449443 -187.4375 153.1875 C-183.81216792 149.81916553 -180.11267607 146.5957798 -176.25 143.5 C-170.51977513 138.88928361 -165.19414922 133.89743362 -159.83203125 128.87109375 C-155.14905056 124.48257219 -150.30083043 120.30380328 -145.41796875 116.140625 C-144.21592754 115.11483908 -143.01411129 114.0887895 -141.8125 113.0625 C-141.20841309 112.54655273 -140.60432617 112.03060547 -139.98193359 111.49902344 C-135.25896371 107.45076354 -130.64615152 103.29903354 -126.05859375 99.09765625 C-121.61228175 95.03673887 -117.06653286 91.09649128 -112.4765625 87.19921875 C-106.52281949 82.13627882 -100.64606772 77.02661435 -94.9375 71.6875 C-90.26471046 67.31749209 -85.43999216 63.23375283 -80.44921875 59.2265625 C-76.01609601 55.53535933 -71.83183127 51.58458108 -67.61328125 47.65234375 C-62.56391909 42.94579098 -57.33606208 38.47119059 -52.05029297 34.03295898 C-51.49744629 33.56833252 -50.94459961 33.10370605 -50.375 32.625 C-49.81828613 32.15715088 -49.26157227 31.68930176 -48.68798828 31.20727539 C-44.86997787 27.97906129 -41.16202003 24.6535245 -37.5 21.25 C-32.87604569 16.95415808 -28.09295163 12.90963257 -23.17578125 8.953125 C-20.1009928 6.44809061 -17.13385951 3.83721893 -14.18359375 1.1875 C-9.87825272 -2.43805034 -5.1071363 -1.58497333 0 0 Z " fill="#FDFCFD" transform="translate(980.625,639.125)"/>
<path d="M0 0 C0.5625 1.9375 0.5625 1.9375 1 4 C0.67 4.33 0.34 4.66 0 5 C-0.10250803 6.80345937 -0.13400103 8.6109722 -0.1386652 10.41733646 C-0.14413964 11.60019861 -0.14961409 12.78306076 -0.15525442 14.00176722 C-0.15623253 15.31788585 -0.15721064 16.63400448 -0.15821838 17.99000549 C-0.16278003 19.38917733 -0.16777946 20.78834779 -0.17318195 22.18751663 C-0.1868178 26.0503878 -0.19419708 29.91325014 -0.20060861 33.77613914 C-0.20858875 37.93499856 -0.22229467 42.09383943 -0.23532104 46.25268555 C-0.25711779 53.46416712 -0.27525053 60.67565053 -0.29092598 67.8871479 C-0.31359557 78.31388599 -0.34174237 88.74060357 -0.37124526 99.1673243 C-0.41895695 116.08216224 -0.4622114 132.99700854 -0.50268555 149.91186523 C-0.5420223 166.34741874 -0.58344413 182.78296479 -0.62768555 199.21850586 C-0.63040982 200.23083464 -0.63313409 201.24316341 -0.63594092 202.28616882 C-0.64962009 207.36449843 -0.66334043 212.44282794 -0.67708123 217.52115738 C-0.79110218 259.68075609 -0.89789907 301.84037085 -1 344 C-1.33 344 -1.66 344 -2 344 C-2.04574135 300.60968621 -2.08100084 257.21937496 -2.10213066 213.82904182 C-2.10463218 208.71065349 -2.10722082 203.59226521 -2.10986328 198.47387695 C-2.1103879 197.45486425 -2.11091252 196.43585154 -2.11145304 195.38595966 C-2.1201643 178.86923716 -2.13593823 162.35252853 -2.15430559 145.83581426 C-2.1729846 128.89804477 -2.18411248 111.96028256 -2.18817699 95.0225032 C-2.19092621 84.5643864 -2.1996207 74.1063088 -2.21583293 63.64820407 C-2.22637517 56.48433343 -2.22960692 49.32048316 -2.22700275 42.15660533 C-2.22571714 38.01858726 -2.22773809 33.88063788 -2.23841095 29.74263191 C-2.24810067 25.95832341 -2.24866296 22.17413016 -2.24179779 18.3898165 C-2.24054461 16.36396273 -2.24920875 14.33811043 -2.25816262 12.31227607 C-2.25418052 11.11846503 -2.25019842 9.92465399 -2.24609566 8.69466686 C-2.2468551 7.65992896 -2.24761454 6.62519106 -2.24839699 5.55909747 C-2 3 -2 3 0 0 Z " fill="#E3E3E3" transform="translate(267,644)"/>
<path d="M0 0 C0.66 0.33 1.32 0.66 2 1 C-0.32236171 3.55187636 -2.65983394 6.08945005 -5 8.625 C-5.97259766 9.69427734 -5.97259766 9.69427734 -6.96484375 10.78515625 C-11.194373 15.34969772 -15.56958625 19.86185902 -21 23 C-21.99 23 -22.98 23 -24 23 C-19.13357577 18.03219193 -14.20920665 13.23384787 -8.9296875 8.70703125 C-5.81053864 5.94778419 -2.90248778 2.98412025 0 0 Z " fill="#1B1B1B" transform="translate(549,529)"/>
<path d="M0 0 C0.66 0.33 1.32 0.66 2 1 C-1.31457218 5.69564393 -5.36279281 8.72469104 -10 12 C-10.66 11.67 -11.32 11.34 -12 11 C-8.04 7.37 -4.08 3.74 0 0 Z " fill="#E2E1E2" transform="translate(816,772)"/>
<path d="M0 0 C0.5625 1.9375 0.5625 1.9375 1 4 C0.67 4.33 0.34 4.66 0 5 C-0.23678716 7.69235776 -0.42198025 10.36498156 -0.5625 13.0625 C-0.60568359 13.82111328 -0.64886719 14.57972656 -0.69335938 15.36132812 C-0.79973633 17.24065438 -0.90039934 19.12030244 -1 21 C-1.33 21 -1.66 21 -2 21 C-2.05390357 18.06225537 -2.0936255 15.12549768 -2.125 12.1875 C-2.14175781 11.35412109 -2.15851563 10.52074219 -2.17578125 9.66210938 C-2.18222656 8.85966797 -2.18867188 8.05722656 -2.1953125 7.23046875 C-2.20578613 6.49207764 -2.21625977 5.75368652 -2.22705078 4.99291992 C-2 3 -2 3 0 0 Z " fill="#D6D6D7" transform="translate(267,644)"/>
<path d="M0 0 C0 3.58912412 -0.66436554 4.10857029 -3 6.6875 C-3.556875 7.31011719 -4.11375 7.93273437 -4.6875 8.57421875 C-5.120625 9.04472656 -5.55375 9.51523437 -6 10 C-6.99 9.67 -7.98 9.34 -9 9 C-6.03 6.03 -3.06 3.06 0 0 Z " fill="#1E1E1E" transform="translate(562,517)"/>
<path d="M0 0 C3.36720387 1.39332574 4.9859524 2.9789286 7 6 C4 6 4 6 1.3125 3.5 C0.549375 2.675 -0.21375 1.85 -1 1 C-0.67 0.67 -0.34 0.34 0 0 Z " fill="#1E1E1D" transform="translate(377,716)"/>
<path d="M0 0 C0.66 0.99 1.32 1.98 2 3 C0.35 4.32 -1.3 5.64 -3 7 C-3.66 6.34 -4.32 5.68 -5 5 C-4.34 5 -3.68 5 -3 5 C-2.5359375 4.0409375 -2.5359375 4.0409375 -2.0625 3.0625 C-1 1 -1 1 0 0 Z " fill="#E0E0E0" transform="translate(523,550)"/>
<path d="M0 0 C0.66 0.33 1.32 0.66 2 1 C0.515 3.475 0.515 3.475 -1 6 C-1.99 5.34 -2.98 4.68 -4 4 C-2.68 2.68 -1.36 1.36 0 0 Z " fill="#E6E5E6" transform="translate(857,736)"/>
</svg>
